<?xml version="1.0" standalone="no"?>
<!DOCTYPE svg PUBLIC "-//W3C//DTD SVG 20010904//EN"
 "http://www.w3.org/TR/2001/REC-SVG-20010904/DTD/svg10.dtd">
<svg version="1.0" xmlns="http://www.w3.org/2000/svg"
 width="1600.000000pt" height="413.000000pt" viewBox="0 0 1600.000000 413.000000"
 preserveAspectRatio="xMidYMid meet">

<g transform="translate(0.000000,413.000000) scale(0.100000,-0.100000)"
fill="#000000" stroke="none">
<path d="M0 2065 l0 -2065 8000 0 8000 0 0 2065 0 2065 -8000 0 -8000 0 0
-2065z m4766 1121 c199 -93 203 -386 6 -483 -78 -38 -156 -38 -233 0 -31 15
-59 27 -64 27 -7 0 -127 -104 -383 -332 -140 -125 -176 -146 -189 -111 -5 12
8 30 43 61 61 56 426 379 462 409 l26 22 -22 48 c-30 68 -35 105 -22 168 12
59 59 137 101 167 71 52 191 63 275 24z m-2021 -80 c60 -28 127 -98 146 -152
20 -59 16 -151 -9 -208 l-22 -49 22 -24 c13 -14 101 -97 196 -186 126 -118
172 -167 170 -182 -2 -11 -11 -21 -21 -23 -19 -4 -38 13 -270 234 l-138 133
-51 -27 c-114 -59 -247 -36 -331 58 -50 55 -67 103 -67 186 0 191 203 321 375
240z m3363 -205 c88 -23 156 -65 223 -139 55 -60 84 -115 104 -199 l13 -53
-78 0 -78 0 -12 38 c-32 100 -111 177 -214 207 -64 19 -119 19 -186 -1 -137
-41 -228 -150 -265 -320 -24 -105 -16 -303 14 -388 63 -178 178 -266 346 -266
161 0 262 77 318 243 5 14 19 17 76 17 38 0 72 -3 74 -7 8 -13 -21 -109 -47
-160 -133 -262 -497 -331 -739 -141 -81 65 -158 193 -191 323 -23 87 -30 227
-17 330 23 173 76 291 177 391 127 127 303 172 482 125z m3976 4 c133 -28 223
-93 275 -197 39 -77 41 -118 7 -118 -13 0 -43 -3 -67 -6 l-44 -6 -27 60 c-21
46 -39 67 -74 90 -150 100 -393 41 -433 -105 -15 -52 -13 -72 9 -120 31 -70
88 -98 355 -178 162 -49 252 -111 296 -203 30 -64 32 -185 4 -260 -55 -148
-210 -236 -415 -235 -232 2 -397 118 -426 302 l-7 41 67 0 c36 0 69 0 74 1 4
0 15 -20 24 -46 20 -57 48 -88 108 -123 39 -23 58 -27 147 -30 93 -4 106 -2
160 22 71 33 100 59 124 111 58 125 -13 229 -189 280 -267 78 -354 117 -416
186 -51 57 -71 117 -70 210 1 158 119 283 305 323 84 19 129 19 213 1z m-1726
-4 c9 -1 12 -134 12 -631 l0 -630 -75 0 -75 0 0 66 0 67 -41 -47 c-80 -91
-198 -125 -314 -91 -195 56 -300 222 -299 475 0 181 46 304 150 400 71 66 123
84 234 85 112 0 150 -16 218 -89 23 -25 43 -46 45 -46 1 0 0 95 -2 210 -1 116
-1 216 2 223 4 12 67 15 145 8z m-4676 -162 c100 -51 142 -197 86 -304 -68
-128 -244 -153 -350 -51 -82 79 -89 218 -16 302 72 82 182 103 280 53z m3439
-155 c185 -53 292 -228 292 -474 0 -275 -147 -468 -371 -487 -201 -17 -363 99
-428 306 -8 25 -18 91 -21 147 -7 116 13 226 54 308 50 99 151 182 250 205 61
14 165 12 224 -5z m1995 -5 c59 -18 77 -30 134 -88 50 -49 72 -81 88 -123 26
-70 42 -162 42 -245 l0 -63 -330 0 c-181 0 -330 -2 -330 -5 0 -2 5 -28 11 -57
32 -150 123 -231 258 -232 106 -1 179 37 227 119 9 17 15 18 73 5 35 -7 65
-19 68 -26 8 -22 -45 -111 -92 -152 -69 -60 -149 -87 -265 -87 -126 0 -199 27
-282 103 -186 172 -201 530 -31 740 94 116 268 161 429 111z m2984 -17 c64
-32 112 -90 137 -165 14 -44 17 -105 21 -404 l3 -353 -75 0 -76 0 0 318 c0
174 -4 334 -9 355 -22 94 -93 147 -197 147 -73 0 -132 -26 -167 -72 -52 -67
-56 -96 -63 -434 l-7 -314 -69 0 -68 0 0 470 0 470 70 0 69 0 3 -71 3 -71 33
46 c80 112 255 147 392 78z m848 28 c71 -13 132 -44 181 -92 45 -43 101 -146
101 -186 0 -22 -3 -23 -72 -20 -70 3 -72 4 -81 33 -27 85 -103 135 -207 135
-162 0 -260 -131 -260 -349 0 -114 16 -179 63 -247 101 -150 330 -135 403 27
l17 40 66 -3 66 -3 -3 -33 c-7 -89 -106 -203 -210 -242 -48 -18 -74 -21 -157
-18 -86 3 -108 7 -157 32 -152 77 -238 238 -238 446 0 204 85 372 223 440 94
46 172 58 265 40z m937 -50 c0 -92 2 -90 -79 -90 -119 0 -202 -61 -226 -166
-5 -21 -10 -175 -10 -342 l0 -303 -72 3 -73 3 -1 450 c0 248 1 458 4 468 4 14
16 17 73 17 l69 0 0 -72 0 -73 29 43 c52 79 143 124 241 119 l45 -2 0 -55z
m659 29 c40 -14 76 -38 107 -69 76 -76 79 -93 79 -507 l0 -353 -70 0 -70 0 0
60 c0 33 -2 60 -5 60 -3 0 -21 -18 -41 -40 -20 -22 -61 -52 -92 -67 -49 -24
-67 -27 -143 -26 -72 0 -97 5 -146 27 -114 53 -163 128 -163 252 0 91 15 128
74 182 51 47 123 76 231 91 177 26 211 33 243 48 30 14 32 19 32 67 0 110 -68
170 -195 170 -95 1 -152 -26 -191 -87 -16 -26 -34 -45 -39 -43 -6 2 -36 9 -68
16 -67 13 -71 25 -30 85 54 80 142 137 243 156 70 13 179 3 244 -22z m-3724
-354 c68 -201 127 -365 131 -365 10 0 28 49 150 418 l104 312 78 0 c59 0 78
-3 74 -12 -13 -36 -72 -202 -122 -343 -132 -370 -268 -742 -285 -775 -26 -51
-87 -107 -136 -126 -30 -11 -65 -15 -118 -12 -41 2 -77 6 -80 8 -3 3 2 33 11
67 l15 62 47 -6 c84 -10 128 26 165 134 l24 71 -80 219 c-134 368 -248 690
-248 702 0 7 26 11 74 11 l74 0 122 -365z m-7127 -1 c86 -22 145 -55 200 -110
64 -65 91 -123 95 -205 5 -77 -5 -102 -51 -126 -29 -16 -66 -18 -362 -18 -366
0 -377 2 -411 67 -36 69 17 222 103 297 107 95 280 133 426 95z m1093 -382
c98 -50 161 -163 151 -272 -6 -66 -24 -105 -74 -161 -100 -110 -257 -116 -371
-14 -63 56 -81 96 -90 191 l-7 77 -135 51 c-122 47 -135 54 -135 76 0 15 7 26
16 28 9 2 67 -17 130 -41 163 -64 150 -62 179 -21 27 41 80 79 137 100 51 19
148 12 199 -14z m-1558 -235 c2 -11 -63 -86 -192 -221 -108 -112 -196 -209
-196 -215 0 -5 11 -31 25 -57 52 -98 24 -251 -58 -320 -88 -75 -211 -90 -306
-39 -94 52 -141 134 -141 244 1 69 18 118 58 168 75 95 211 126 319 72 l52
-26 198 209 c198 208 232 234 241 185z m736 8 c6 -17 -59 -91 -272 -315 l-120
-125 25 -49 c95 -188 -31 -400 -237 -400 -108 0 -202 64 -245 168 -19 46 -19
157 0 203 61 146 228 211 362 141 l52 -26 29 34 c94 110 367 384 382 384 10 0
21 -7 24 -15z m10094 -449 c-4 -27 -43 -34 -52 -9 -5 11 -1 22 9 30 23 16 47
5 43 -21z m-7690 -147 c2 -146 0 -167 -14 -173 -9 -3 -20 -4 -25 0 -10 6 -12
327 -2 338 4 4 14 5 23 4 13 -3 15 -29 18 -169z m2230 149 c3 -15 -5 -18 -52
-18 l-56 0 0 -149 c0 -127 -2 -150 -16 -155 -9 -3 -20 -4 -25 0 -5 3 -9 72 -9
155 l0 149 -55 0 c-39 0 -55 4 -55 13 0 25 14 28 139 25 111 -3 126 -5 129
-20z m102 -42 c4 -52 7 -57 19 -43 21 26 92 23 119 -5 18 -20 21 -37 23 -121
2 -96 -7 -127 -30 -113 -7 4 -11 42 -11 92 0 104 -9 124 -55 124 -55 0 -65
-19 -65 -120 0 -62 -4 -90 -12 -93 -35 -12 -38 3 -38 167 0 90 3 166 7 170 4
4 14 5 23 4 11 -2 16 -20 20 -62z m1303 13 c7 -59 12 -68 29 -51 7 7 31 12 54
12 34 0 47 -5 63 -26 18 -23 21 -41 21 -124 0 -75 -3 -99 -14 -103 -23 -9 -26
2 -26 92 -1 101 -13 125 -62 123 -48 -1 -58 -23 -58 -124 0 -87 0 -88 -25 -88
l-25 0 0 163 c0 90 3 167 7 170 18 19 31 3 36 -44z m587 33 c20 -9 43 -32 53
-52 17 -34 17 -35 -3 -38 -12 -2 -30 9 -47 28 -18 19 -41 33 -64 36 -32 5 -42
2 -74 -27 -46 -43 -56 -97 -30 -165 14 -36 25 -49 53 -61 47 -19 81 -10 118
34 20 23 37 34 47 30 41 -16 -29 -101 -92 -112 -87 -14 -159 32 -182 117 -40
150 91 275 221 210z m628 -154 c-2 -126 -6 -172 -16 -176 -6 -2 -16 6 -20 18
-7 19 -10 20 -21 6 -18 -21 -70 -30 -104 -17 -45 17 -69 66 -64 134 5 77 40
117 103 117 25 0 49 -6 58 -15 23 -24 26 -19 26 45 0 54 2 60 20 60 20 0 20
-5 18 -172z m702 154 c20 -9 43 -32 53 -52 17 -35 17 -35 -4 -38 -15 -3 -30 6
-46 27 -45 57 -134 48 -168 -19 -19 -37 -19 -100 0 -146 30 -71 136 -79 174
-13 15 27 44 38 55 21 2 -4 -5 -26 -17 -47 -17 -29 -33 -44 -62 -53 -78 -26
-149 0 -190 69 -29 49 -28 157 1 196 52 70 132 92 204 55z m455 -157 c0 -163
-1 -170 -20 -170 -19 0 -20 8 -23 160 -1 87 0 165 3 173 3 7 13 12 22 10 16
-3 18 -19 18 -173z m115 5 c0 -163 -1 -170 -20 -170 -19 0 -20 7 -20 170 0
163 1 170 20 170 19 0 20 -7 20 -170z m390 106 c4 -52 7 -57 19 -43 19 24 91
22 123 -3 44 -34 54 -118 23 -193 -18 -44 -110 -62 -145 -27 -14 14 -20 16
-20 6 0 -16 -27 -29 -41 -20 -10 6 -12 327 -2 338 4 4 14 5 23 4 11 -2 16 -20
20 -62z m-5030 4 c0 -27 3 -30 31 -30 24 0 30 -4 27 -17 -2 -11 -14 -19 -31
-21 -27 -3 -27 -4 -27 -81 0 -80 9 -101 43 -101 12 0 17 -6 15 -17 -3 -13 -13
-18 -38 -16 -50 2 -60 23 -60 124 0 79 -2 88 -20 94 -11 3 -20 13 -20 21 0 8
9 14 20 14 16 0 20 7 20 30 0 23 4 30 20 30 16 0 20 -7 20 -30z m6060 0 c0
-26 4 -30 26 -30 33 0 30 -33 -4 -38 -22 -3 -23 -7 -20 -85 3 -76 5 -82 28
-94 14 -7 25 -18 25 -25 0 -21 -49 -21 -76 0 -22 19 -23 25 -21 111 3 86 2 91
-17 91 -29 0 -28 36 0 43 15 4 20 11 15 22 -8 22 1 35 25 35 14 0 19 -7 19
-30z m-7420 -47 c0 -15 1 -15 18 0 29 27 94 22 122 -8 22 -23 25 -37 28 -125
l4 -100 -26 0 -26 0 0 93 c0 102 -7 117 -54 117 -54 0 -66 -22 -66 -120 0 -79
-2 -88 -20 -93 -16 -4 -20 2 -25 37 -3 22 -3 59 -1 81 3 22 5 61 5 88 1 40 4
47 21 47 12 0 20 -7 20 -17z m280 0 c0 -15 1 -15 18 0 28 25 96 22 122 -5 11
-12 20 -29 21 -37 6 -177 4 -196 -16 -196 -18 0 -20 8 -25 95 -3 52 -9 101
-13 108 -5 6 -23 12 -42 12 -51 0 -65 -27 -65 -127 0 -83 -6 -98 -34 -87 -13
5 -16 25 -16 123 0 65 3 121 7 124 13 14 43 7 43 -10z m421 -11 c27 -24 33
-37 37 -84 8 -96 -46 -156 -131 -145 -101 14 -141 152 -64 227 26 25 39 30 79
30 38 0 54 -6 79 -28z m148 -67 c19 -53 36 -94 39 -91 2 3 19 45 37 93 26 68
38 89 54 91 12 2 21 0 21 -5 0 -5 -20 -60 -43 -123 -39 -101 -47 -115 -69
-118 -25 -3 -37 22 -114 231 -5 13 -1 17 18 17 21 0 27 -11 57 -95z m368 73
c21 -20 23 -30 23 -125 0 -95 -2 -103 -19 -103 -11 0 -21 5 -23 11 -2 7 -15 4
-35 -7 -64 -37 -146 15 -129 82 9 33 42 52 106 61 45 7 55 12 55 28 0 10 -11
25 -25 33 -26 14 -52 8 -92 -20 -13 -10 -20 -10 -29 -1 -9 9 -5 18 14 37 35
35 119 37 154 4z m423 -5 c23 -20 33 -40 37 -70 l6 -43 -96 0 -96 0 11 -30
c18 -52 81 -68 116 -30 20 22 52 18 52 -6 0 -19 -59 -54 -91 -54 -42 0 -86 20
-103 45 -38 59 -28 156 21 195 39 31 105 27 143 -7z m842 16 c3 -9 9 -9 25 0
36 19 73 14 73 -9 0 -15 -7 -20 -27 -20 -51 0 -63 -24 -63 -120 0 -71 -3 -89
-16 -94 -9 -3 -20 -4 -25 0 -5 3 -9 61 -9 130 0 116 1 124 19 124 11 0 21 -5
23 -11z m306 -5 c80 -56 65 -205 -23 -234 -75 -25 -146 17 -161 96 -9 47 19
120 54 139 36 19 102 19 130 -1z m153 -26 c1 -24 0 -57 -1 -73 -1 -35 16 -86
33 -97 21 -13 46 -9 67 12 17 17 20 33 20 110 0 89 0 90 25 90 l25 0 0 -125 0
-125 -25 0 c-14 0 -25 5 -25 10 0 6 -13 4 -30 -5 -41 -21 -64 -19 -99 11 -31
26 -31 26 -31 130 0 97 1 104 20 104 17 0 20 -7 21 -42z m395 27 c4 -8 10 -15
15 -15 5 0 9 7 9 15 0 8 9 15 20 15 19 0 20 -7 20 -140 0 -83 -5 -149 -11
-164 -26 -57 -132 -71 -189 -26 -24 20 -25 21 -6 35 17 13 22 13 37 -1 9 -8
32 -17 51 -20 30 -5 38 -2 56 21 34 43 26 101 -8 60 -7 -9 -29 -15 -51 -15
-57 0 -99 41 -106 102 -7 61 1 89 33 121 22 22 36 27 76 27 34 0 50 -4 54 -15z
m1080 -19 c30 -30 34 -40 34 -87 0 -95 -51 -147 -133 -136 -101 13 -140 152
-65 227 25 25 37 30 80 30 44 0 54 -4 84 -34z m567 13 c27 -20 53 -91 42 -109
-3 -6 -46 -10 -96 -10 -99 0 -110 -10 -64 -55 29 -30 75 -33 99 -6 10 11 25
17 37 14 25 -7 24 -15 -7 -44 -37 -35 -121 -34 -158 0 -55 52 -55 153 -1 207
32 32 110 34 148 3z m763 -13 c30 -30 34 -40 34 -87 0 -91 -43 -139 -125 -139
-67 0 -125 81 -110 156 3 19 20 50 37 69 27 31 36 35 80 35 44 0 54 -4 84 -34z
m501 12 c21 -20 23 -30 23 -124 0 -103 -10 -134 -34 -103 -9 13 -15 13 -36 2
-53 -27 -117 -8 -133 40 -19 58 35 107 118 107 46 0 58 25 25 52 -26 21 -67
18 -86 -8 -13 -16 -40 -19 -49 -4 -3 5 5 21 19 35 34 34 118 36 153 3z m562 6
c49 -35 65 -123 32 -184 -35 -65 -136 -78 -187 -23 -47 51 -40 161 13 203 32
25 108 27 142 4z m151 -1 c0 -15 1 -15 18 0 27 24 72 22 72 -2 0 -15 -8 -21
-32 -23 -44 -4 -58 -35 -58 -129 0 -80 -3 -91 -26 -82 -11 4 -14 32 -14 129 0
117 1 124 20 124 12 0 20 -7 20 -17z m311 -9 c22 -24 24 -33 24 -126 0 -104
-8 -124 -37 -95 -12 12 -17 13 -33 1 -33 -24 -105 -13 -127 20 -4 6 -8 28 -8
48 0 47 25 65 102 74 47 5 58 10 58 25 0 42 -89 62 -104 23 -7 -19 -46 -18
-46 1 0 56 125 77 171 29z m299 -98 c0 -104 -3 -125 -16 -130 -9 -3 -20 -4
-25 0 -5 3 -9 61 -9 130 l0 124 25 0 25 0 0 -124z m256 90 c30 -30 34 -40 34
-87 0 -69 -25 -113 -75 -129 -101 -33 -183 53 -154 164 16 58 52 86 111 86 43
0 54 -4 84 -34z m134 19 c0 -8 4 -15 9 -15 5 0 14 7 21 15 8 9 29 15 55 15 35
0 48 -5 64 -26 18 -23 21 -41 21 -125 0 -92 -1 -99 -20 -99 -18 0 -20 7 -20
88 -1 56 -5 93 -14 105 -16 20 -81 24 -93 5 -4 -7 -10 -56 -13 -108 -5 -87 -7
-95 -25 -95 -19 0 -20 8 -23 128 -2 122 -2 127 18 127 11 0 20 -7 20 -15z
m1183 -573 c12 -11 44 -31 71 -45 47 -24 47 -25 21 -31 -61 -15 -128 -79 -150
-143 l-12 -35 -13 32 c-25 60 -68 107 -120 132 l-52 25 45 22 c52 25 103 78
124 129 l14 34 25 -49 c13 -27 34 -59 47 -71z"/>
<path d="M7895 2449 c-50 -14 -102 -66 -136 -135 -29 -59 -33 -77 -37 -173 -5
-124 11 -196 60 -274 100 -156 320 -132 398 45 50 113 47 306 -6 415 -52 107
-164 156 -279 122z"/>
<path d="M6916 2446 c-161 -60 -226 -343 -124 -545 40 -79 99 -125 177 -136
67 -9 146 14 190 57 150 147 129 508 -36 604 -54 33 -149 41 -207 20z"/>
<path d="M8905 2453 c-29 -8 -79 -44 -110 -81 -30 -36 -65 -119 -65 -157 l0
-25 245 0 c207 0 247 2 251 15 3 8 -4 44 -16 81 -27 80 -84 143 -146 162 -41
12 -121 14 -159 5z"/>
<path d="M14535 2099 c-16 -5 -79 -16 -140 -25 -185 -26 -245 -66 -245 -162 0
-68 18 -101 72 -132 58 -33 172 -35 233 -3 87 46 122 107 125 223 4 122 7 115
-45 99z"/>
<path d="M11085 1050 c-46 -17 -64 -78 -41 -134 28 -66 105 -59 127 12 22 76
-26 144 -86 122z"/>
<path d="M12922 1049 c-71 -26 -48 -179 27 -179 36 0 61 29 68 78 10 72 -37
122 -95 101z"/>
<path d="M7084 1048 c-58 -27 -57 -143 0 -169 37 -17 74 -3 93 35 36 77 -26
167 -93 134z"/>
<path d="M7635 950 c-53 -8 -65 -16 -65 -45 0 -51 96 -44 114 8 13 36 1 45
-49 37z"/>
<path d="M8007 1032 c-31 -34 -21 -42 53 -42 l71 0 -16 30 c-13 25 -21 30 -54
30 -24 0 -44 -7 -54 -18z"/>
<path d="M9174 1042 c-40 -27 -46 -111 -9 -147 76 -77 170 55 97 138 -15 17
-68 23 -88 9z"/>
<path d="M9724 1029 c-12 -14 -19 -36 -19 -64 0 -28 7 -50 19 -64 24 -27 77
-28 100 -2 25 27 25 105 1 131 -24 27 -76 26 -101 -1z"/>
<path d="M10797 1053 c-47 -12 -63 -118 -22 -158 42 -43 96 -29 115 30 25 76
-25 145 -93 128z"/>
<path d="M11383 1053 c-21 -4 -53 -37 -53 -55 0 -5 32 -8 70 -8 54 0 70 3 70
14 0 14 -47 57 -59 55 -3 -1 -16 -4 -28 -6z"/>
<path d="M12124 1048 c-49 -23 -60 -113 -19 -153 64 -65 145 9 116 105 -9 29
-19 41 -43 49 -17 6 -31 11 -32 10 -1 0 -11 -5 -22 -11z"/>
<path d="M12618 939 c-22 -13 -23 -55 -2 -63 47 -18 104 11 104 54 0 17 -7 20
-42 20 -24 0 -51 -5 -60 -11z"/>
<path d="M13202 1049 c-47 -18 -60 -119 -19 -157 52 -49 117 -10 117 69 0 71
-42 109 -98 88z"/>
<path d="M13692 949 c-81 -11 -97 -70 -20 -77 41 -4 71 24 66 60 -3 21 -7 23
-46 17z"/>
<path d="M14204 1048 c-49 -23 -60 -113 -19 -153 42 -43 96 -29 115 30 26 79
-32 154 -96 123z"/>
</g>
</svg>
